<svg width="1680" height="654" fill="none" xmlns="http://www.w3.org/2000/svg"><path opacity=".2" d="M-2 0h1682v653H-2V0Z" fill="#A3DCF1"/><path opacity=".2" fill-rule="evenodd" clip-rule="evenodd" d="M1680 598.778v54.654h-176.38c31.24-25.422 73.81-57.358 143.16-57.432 11.34-.012 22.43.923 33.22 2.778ZM759.374 0H417c5.252 13.13 10.659 27.183 16.428 42.263l.865 2.28v.001c45.248 119.365 107.148 282.656 304.505 396.6 185.075 106.853 399.242 105.984 602.592-3.856 120.73-65.368 235.54-166.989 338.61-298.934V0h-289.22c-142.98 159.03-322 259.664-489.774 162.798C824.186 118.446 788.295 66.036 759.374 0ZM-1 453.379v-266.35c72.53 4.759 143.23 26.289 209.425 64.506 162.973 94.093 214.089 228.936 251.454 327.506l.714 1.883c10.706 27.983 19.9 51.681 29.53 72.076H206.469c-27.638-72.591-54.777-127.031-131.993-171.612C49.542 466.993 24.307 457.88-1 453.379Z" fill="#A3DCF1"/></svg>