<?xml version="1.0" encoding="utf-8"?>
<!-- Generator: Adobe Illustrator 22.0.0, SVG Export Plug-In . SVG Version: 6.00 Build 0)  -->
<svg version="1.1" id="Layer_1" xmlns="http://www.w3.org/2000/svg" xmlns:xlink="http://www.w3.org/1999/xlink" x="0px" y="0px"
	 viewBox="0 0 432 432" style="enable-background:new 0 0 432 432;" xml:space="preserve">
<g>
	<g>
		<path d="M51.5,89.3c2.2-0.5,4.3-0.4,6.3,0.5c1.8,0.8,3.4,2,4.8,3.8c1.4,1.7,2.3,3.6,2.9,5.8c0.6,2.2,0.7,4.4,0.3,6.4
			c-0.6,3.1-2.2,5.6-4.8,7.7c-2.7,2.1-5.5,2.9-8.3,2.4c0.1,8.8,0.2,16,0.1,21.5c0,0.7-0.2,1.3-0.7,1.7c-0.4,0.4-1,0.6-1.6,0.6
			c-0.6,0-1.2-0.2-1.6-0.6c-0.5-0.4-0.7-1-0.7-1.7c0-5.9,0-13.9-0.2-24c-0.3-0.2-0.5-0.5-0.7-0.7c-0.5-0.6-0.7-1.3-0.5-2.1
			c0.1-0.7,0.5-1.2,1.1-1.6c-0.1-7.7-0.2-13.7-0.2-18c0-1,0.5-1.7,1.4-2.1C49.9,88.7,50.7,88.8,51.5,89.3z M52.6,111
			c2,0.9,4,0.4,6-1.6c1.9-1.9,2.9-4,2.7-6.3c-0.1-2.7-1-5-2.6-6.9c-1.8-2.1-3.9-2.9-6.4-2.3C52.4,97.9,52.5,103.6,52.6,111z"/>
		<path d="M89.7,135.7c0.5,0.5,0.7,1.2,0.6,1.8c-0.1,0.6-0.3,1.1-0.8,1.6c-0.5,0.5-1,0.7-1.5,0.7c-0.6,0-1.2-0.2-1.6-0.8
			c-2.4-2.8-4.5-6.5-6-11c-0.5-1.4-1.1-3.4-1.9-6l-0.9-3c-0.3-1.1-0.7-2.2-1-3.1c-0.4,0-0.9,0-1.3-0.1c0.1,8.9,0.2,16.1,0.1,21.7
			c0,0.7-0.2,1.3-0.7,1.7c-0.5,0.4-1,0.6-1.6,0.6c-0.6,0-1.2-0.2-1.6-0.6c-0.5-0.4-0.7-1-0.7-1.7c0-5.8,0-13.5-0.1-23.2l-0.2-11.6
			c0-4.4-0.1-8.3-0.1-11.6c0-1,0.5-1.7,1.4-2.1c0.9-0.3,1.7-0.2,2.4,0.3c2-0.5,4-0.4,5.9,0.4c1.8,0.7,3.4,1.8,4.8,3.3
			c1.4,1.5,2.4,3.2,3.1,5.2c0.7,2,1,4,0.8,6c-0.2,2.4-1,4.6-2.4,6.6c-1.4,2-3,3.4-5,4.3c0.2,0.8,0.5,1.7,0.8,2.7l0.7,2.7
			c0.6,2.4,1.2,4.2,1.6,5.4C85.8,129.9,87.6,133.2,89.7,135.7z M75.4,111c2.5,0.9,4.6,0.2,6.5-2c1.8-2.1,2.5-4.5,2.1-6.9
			c-0.3-2.5-1.3-4.6-2.8-6.2c-1.7-1.8-3.8-2.5-6.1-2C75.1,97.8,75.2,103.5,75.4,111z"/>
		<path d="M115.4,101.8c1.6,6,2.2,11.9,1.6,17.5c-0.6,6.3-2.5,11.8-5.7,16.5c-1.5,2.2-3,3.5-4.6,3.9c-1.9,0.5-3.6-0.3-5.3-2.3
			c-2.7-3.4-4.7-7.9-5.9-13.7c-1.5-6.9-1.4-13.4,0.1-19.6c0.2-0.7,0.3-1.3,0.5-1.8c0.2-0.7,0.4-1.3,0.6-1.9c0.5-1.5,0.9-2.8,1.4-4
			c1.4-3.1,3-5.2,4.8-6.3c3.2-1.9,6-1.2,8.4,2.2c0.9,1.2,1.7,2.8,2.5,4.8c0.3,0.8,0.6,1.6,0.9,2.5C115,100.2,115.2,101,115.4,101.8z
			 M110.6,127c2.4-7.5,2.5-15.5,0.3-24l-0.5-1.7l-0.5-1.7c-0.5-1.3-0.9-2.4-1.5-3.3c0,0-0.1-0.1-0.1-0.3l-0.1-0.2l-0.1-0.2
			c-0.2-0.4-0.4-0.7-0.6-0.9c-0.5-0.7-1-1-1.4-0.9c-0.7,0.3-1.3,0.9-2,1.7c-0.2,0.4-0.5,0.8-0.7,1.2c-0.2,0.3-0.4,0.7-0.6,1.1
			c-1.9,4.1-3.1,8.3-3.5,12.7c-0.5,4.6-0.1,9,1.1,13.1l0.4,1.3l0.4,1.4c0.3,1,0.6,2,0.9,2.7c0.8,2,1.7,3.7,2.7,4.9
			c0.9,1.1,2.1,0.4,3.5-1.9c0.5-0.8,1-1.8,1.5-2.9c0.2-0.4,0.3-0.8,0.5-1.2C110.5,127.6,110.6,127.3,110.6,127z"/>
		<path d="M138.7,135.5c0.6,0.3,1,0.7,1.2,1.3c0.1,0.5,0,1.1-0.3,1.6c-0.3,0.5-0.8,0.9-1.4,1.2c-0.6,0.3-1.3,0.2-1.9,0
			c-4.5-1.9-8.1-5.6-11-11.1c-2.6-5.1-3.9-10.3-3.8-15.5c0.1-5.4,1.5-10.3,4.1-14.6c2.9-4.7,6.8-7.8,11.7-9.2
			c0.7-0.2,1.3-0.1,1.8,0.2c0.5,0.3,0.8,0.8,1,1.4c0.2,0.6,0.1,1.2-0.1,1.7c-0.3,0.6-0.7,1-1.4,1.2c-4.2,1.2-7.4,3.8-9.6,7.8
			c-2,3.6-2.9,7.8-2.7,12.6c0.2,4.7,1.4,9,3.5,12.9C132,131.1,135,134,138.7,135.5z"/>
		<path d="M163.9,135.7c0.5,0.5,0.7,1.2,0.6,1.8c-0.1,0.6-0.3,1.1-0.8,1.6c-0.5,0.5-1,0.7-1.5,0.7c-0.6,0-1.2-0.2-1.6-0.8
			c-2.4-2.8-4.5-6.5-6-11c-0.5-1.4-1.1-3.4-1.9-6l-0.9-3c-0.3-1.1-0.7-2.2-1-3.1c-0.4,0-0.9,0-1.3-0.1c0.1,8.9,0.2,16.1,0.1,21.7
			c0,0.7-0.2,1.3-0.7,1.7c-0.5,0.4-1,0.6-1.6,0.6c-0.6,0-1.2-0.2-1.6-0.6c-0.5-0.4-0.7-1-0.7-1.7c0-5.8,0-13.5-0.1-23.2l-0.2-11.6
			c0-4.4-0.1-8.3-0.1-11.6c0-1,0.5-1.7,1.4-2.1c0.9-0.3,1.7-0.2,2.4,0.3c2-0.5,4-0.4,5.9,0.4c1.8,0.7,3.4,1.8,4.8,3.3
			c1.4,1.5,2.4,3.2,3.1,5.2c0.7,2,1,4,0.8,6c-0.2,2.4-1,4.6-2.4,6.6c-1.4,2-3,3.4-5,4.3c0.2,0.8,0.5,1.7,0.8,2.7l0.7,2.7
			c0.6,2.4,1.2,4.2,1.6,5.4C160,129.9,161.7,133.2,163.9,135.7z M149.6,111c2.5,0.9,4.6,0.2,6.5-2c1.8-2.1,2.5-4.5,2.1-6.9
			c-0.3-2.5-1.3-4.6-2.8-6.2c-1.7-1.8-3.8-2.5-6.1-2C149.3,97.8,149.4,103.5,149.6,111z"/>
		<path d="M188.2,136.8c0.1,0.7-0.1,1.3-0.5,1.9c-0.4,0.5-0.9,0.8-1.5,1c-0.6,0.2-1.2,0.1-1.6-0.1c-0.5-0.3-0.8-0.8-0.9-1.5
			c-0.4-2.5-0.8-5.5-1.4-9l-4,0l-4.1,0c-0.6,3.5-1.1,6.5-1.4,9c-0.1,0.7-0.4,1.2-0.9,1.5c-0.5,0.2-1,0.3-1.6,0.1
			c-0.6-0.2-1.1-0.5-1.5-1c-0.4-0.5-0.6-1.1-0.5-1.9c0.5-3.3,1.1-7.1,1.8-11.4l1-5.7l1-5.7c1.8-9.8,3-17.4,3.7-22.8
			c0-0.2,0.1-0.4,0.1-0.6c0-0.7,0.4-1.2,1-1.5c0.5-0.3,1.2-0.3,1.9-0.1c0.9,0.1,1.4,0.6,1.6,1.4c0.1,0.3,0.2,0.5,0.2,0.7
			c0.6,4.6,1.4,10.2,2.6,16.7l1.5,8.3l1.5,8.3c0.9,0.3,1.4,0.9,1.5,1.9c0.1,1-0.2,1.7-0.8,2.2C187.5,131.8,187.9,134.5,188.2,136.8z
			 M175,124.4l6.5-0.1l-1.6-9.2l-1.6-9.2l-1.6,9.3L175,124.4z"/>
		<path d="M206.3,115.4c1.2,1.4,2.2,2.7,2.9,4c2,3.5,2.8,7.1,2.3,10.6c-0.5,3.9-2.5,6.8-5.9,8.7c-2.6,1.4-5.3,1.4-8.2-0.2
			c-1.3-0.7-2.3-1.6-3.1-2.8c-0.8-1.2-1.3-2.5-1.3-4c0-0.7,0.2-1.3,0.6-1.7c0.4-0.4,1-0.6,1.6-0.6c0.6,0,1.2,0.2,1.6,0.6
			c0.5,0.4,0.8,1,0.8,1.7c0.1,1.9,1.1,2.9,3.2,3c0.8,0.1,1.7,0,2.5-0.3c0.9-0.3,1.5-0.7,2-1.3c1-1.2,1.6-2.7,1.8-4.3
			c0.2-1.5-0.1-3.1-0.7-4.6c-0.7-1.8-1.9-3.7-3.6-5.7c-0.5-0.6-1.3-1.5-2.2-2.5l-1.1-1.2l-1.1-1.3c-2.8-3.2-4.7-6.4-5.6-9.7
			c-1.1-4.1-0.5-7.7,2-10.6c1.1-1.3,2.5-2.4,4.2-3.1c1.7-0.7,3.4-1,5.2-1c1.9,0.1,3.5,0.6,4.8,1.5c1.5,1,2.5,2.5,3.1,4.4
			c1,3.5,0.4,6.4-1.8,8.7c-1.1,1.2-2.4,1.7-4,1.6c-1.6-0.1-2.8-0.9-3.5-2.3c-0.3-0.6-0.4-1.3-0.2-1.9c0.2-0.6,0.6-1,1.1-1.3
			c0.5-0.3,1.1-0.4,1.6-0.3c0.6,0.1,1.1,0.5,1.4,1.1c0,0.1,0.2,0,0.4-0.2c0-0.1,0.1-0.2,0.2-0.4l0.1-0.1c0,0,0,0,0-0.1
			c0.2-0.5,0.3-1,0.4-1.5c0.1-0.8,0-1.6-0.4-2.4c-0.4-0.8-1-1.3-1.6-1.7c-0.8-0.5-1.7-0.6-2.7-0.5c-2,0.1-3.5,1-4.6,2.5
			c0,0,0,0.1-0.1,0.1l-0.1,0.2c-0.1,0.2-0.2,0.3-0.2,0.5c-0.3,0.5-0.5,1.1-0.6,1.7c-0.5,1.8-0.4,3.5,0.2,5.2l0.1,0.3l0.1,0.3
			l0.1,0.2c0.9,2.1,2.6,4.4,5.1,7l1.7,1.8C205.3,114.3,205.8,114.9,206.3,115.4z"/>
		<path d="M235.6,88.8c0.7-0.1,1.3,0,1.9,0.4c0.5,0.4,0.8,0.8,1,1.5c0.2,0.6,0.1,1.2-0.1,1.6c-0.3,0.6-0.8,0.9-1.5,1
			c-1.7,0.3-4,0.4-6.8,0.2c0,2.9,0,6.6,0.1,11l0.1,5.5l0.1,5.5c0.1,8.8-0.1,16.2-0.5,22c0,0.7-0.3,1.3-0.9,1.7
			c-0.5,0.4-1,0.6-1.6,0.6s-1.2-0.2-1.6-0.6c-0.5-0.4-0.7-1-0.6-1.7c0.4-5.8,0.6-13.2,0.5-22.1l-0.1-5.6l-0.1-5.5
			c-0.1-4.4-0.1-8.1-0.1-11c-2.1,0-4,0.2-5.6,0.6c-0.7,0.2-1.3,0.1-1.9-0.2c-0.5-0.3-0.8-0.8-1-1.4c-0.2-0.6-0.1-1.2,0.1-1.7
			c0.3-0.6,0.8-1,1.5-1.1c2-0.6,4.9-0.7,8.5-0.5l2.1,0.1l2.1,0.1C232.9,89.1,234.3,89,235.6,88.8z"/>
		<path d="M247.5,91.1c0,3.1,0,7,0.1,11.6l0.1,5.8l0.1,5.8c0.1,9.3,0,17-0.4,23.2c0,0.7-0.3,1.3-0.9,1.7c-0.5,0.4-1,0.6-1.6,0.6
			c-0.6,0-1.2-0.2-1.6-0.6c-0.5-0.4-0.7-1-0.6-1.7c0.4-6.2,0.6-13.9,0.4-23.2l-0.1-5.8l-0.1-5.8c-0.1-4.6-0.1-8.5-0.1-11.6
			c0-0.7,0.2-1.3,0.7-1.7c0.5-0.4,1-0.6,1.6-0.6c0.6,0,1.2,0.2,1.6,0.6C247.3,89.8,247.5,90.4,247.5,91.1z"/>
		<path d="M273.4,91.3c0.4,5.5,0.5,13.2,0.5,23.1l0,5.8v5.8c0,4.3,0.1,8.2,0.2,11.5c0,0.7-0.2,1.2-0.6,1.6c-0.4,0.4-0.9,0.6-1.5,0.6
			c-0.6,0-1.1-0.1-1.6-0.4c-0.5-0.4-0.8-0.9-0.9-1.5l-0.1-0.1l-0.1-0.1c-1.5-2.9-2.9-6.5-4.3-10.8c-0.5-1.4-1-3.2-1.7-5.5l-0.9-2.8
			l-0.9-2.8c-1.4-4.4-2.8-8.4-4.1-12c0,2.3-0.1,5.1-0.1,8.5l-0.2,8.4c-0.1,6.8-0.1,12.4,0.1,16.9c0,0.7-0.2,1.3-0.7,1.7
			c-0.4,0.4-0.9,0.6-1.6,0.6s-1.2-0.2-1.6-0.6c-0.5-0.4-0.8-1-0.8-1.7c-0.1-3.4-0.2-7.3-0.2-11.6l0.1-5.8l0.1-5.8
			c0.2-10.1,0.2-17.8-0.1-23.2c0-0.7,0.2-1.2,0.6-1.6c0.4-0.4,0.9-0.6,1.5-0.6c0.6,0,1.1,0.1,1.6,0.4c0.5,0.3,0.9,0.8,1,1.4
			c3,6.7,5.9,14.2,8.5,22.5l0.9,2.9l0.9,2.9c0.8,2.5,1.4,4.4,1.8,5.8l0-8.4l0-8.3c0-6.5-0.2-12.1-0.5-16.7c0-0.7,0.2-1.3,0.6-1.7
			c0.4-0.4,1-0.5,1.6-0.5c0.6,0,1.2,0.2,1.7,0.5C273.1,90,273.4,90.6,273.4,91.3z"/>
		<path d="M298.1,136.8c0.1,0.7-0.1,1.3-0.5,1.9c-0.4,0.5-0.9,0.8-1.5,1c-0.6,0.2-1.2,0.1-1.6-0.1c-0.5-0.3-0.8-0.8-0.9-1.5
			c-0.4-2.5-0.8-5.5-1.4-9l-4,0l-4.1,0c-0.6,3.5-1.1,6.5-1.4,9c-0.1,0.7-0.4,1.2-0.9,1.5c-0.5,0.2-1,0.3-1.6,0.1
			c-0.6-0.2-1.1-0.5-1.5-1c-0.4-0.5-0.6-1.1-0.5-1.9c0.5-3.3,1.1-7.1,1.8-11.4l1-5.7l1-5.7c1.8-9.8,3-17.4,3.7-22.8
			c0-0.2,0.1-0.4,0.1-0.6c0-0.7,0.4-1.2,1-1.5c0.5-0.3,1.2-0.3,1.9-0.1c0.9,0.1,1.4,0.6,1.6,1.4c0.1,0.3,0.2,0.5,0.2,0.7
			c0.6,4.6,1.4,10.2,2.6,16.7l1.5,8.3l1.5,8.3c0.9,0.3,1.4,0.9,1.5,1.9c0.1,1-0.2,1.7-0.8,2.2C297.4,131.8,297.8,134.5,298.1,136.8z
			 M284.9,124.4l6.5-0.1l-1.6-9.2l-1.6-9.2l-1.6,9.3L284.9,124.4z"/>
		<path d="M314.7,88.8c0.7-0.1,1.3,0,1.9,0.4c0.5,0.4,0.8,0.8,1,1.5c0.2,0.6,0.1,1.2-0.1,1.6c-0.3,0.6-0.8,0.9-1.5,1
			c-1.7,0.3-4,0.4-6.8,0.2c0,2.9,0,6.6,0.1,11l0.1,5.5l0.1,5.5c0.1,8.8-0.1,16.2-0.5,22c0,0.7-0.3,1.3-0.9,1.7
			c-0.5,0.4-1,0.6-1.6,0.6c-0.6,0-1.2-0.2-1.6-0.6c-0.5-0.4-0.7-1-0.6-1.7c0.4-5.8,0.6-13.2,0.5-22.1l-0.1-5.6l-0.1-5.5
			c-0.1-4.4-0.1-8.1-0.1-11c-2.1,0-4,0.2-5.6,0.6c-0.7,0.2-1.3,0.1-1.9-0.2c-0.5-0.3-0.8-0.8-1-1.4c-0.2-0.6-0.1-1.2,0.1-1.7
			c0.3-0.6,0.8-1,1.5-1.1c2-0.6,4.9-0.7,8.5-0.5l2.1,0.1l2.1,0.1C312,89.1,313.4,89,314.7,88.8z"/>
		<path d="M336.8,101.8c1.6,6,2.2,11.9,1.6,17.5c-0.6,6.3-2.5,11.8-5.7,16.5c-1.5,2.2-3,3.5-4.6,3.9c-1.9,0.5-3.6-0.3-5.3-2.3
			c-2.7-3.4-4.7-7.9-5.9-13.7c-1.5-6.9-1.4-13.4,0.1-19.6c0.2-0.7,0.3-1.3,0.5-1.8c0.2-0.7,0.4-1.3,0.6-1.9c0.5-1.5,0.9-2.8,1.4-4
			c1.4-3.1,3-5.2,4.8-6.3c3.2-1.9,6-1.2,8.4,2.2c0.9,1.2,1.7,2.8,2.5,4.8c0.3,0.8,0.6,1.6,0.9,2.5
			C336.3,100.2,336.5,101,336.8,101.8z M332,127c2.4-7.5,2.5-15.5,0.3-24l-0.5-1.7l-0.5-1.7c-0.5-1.3-0.9-2.4-1.5-3.3
			c0,0-0.1-0.1-0.1-0.3l-0.1-0.2l-0.1-0.2c-0.2-0.4-0.4-0.7-0.6-0.9c-0.5-0.7-1-1-1.4-0.9c-0.7,0.3-1.3,0.9-2,1.7
			c-0.2,0.4-0.5,0.8-0.7,1.2c-0.2,0.3-0.4,0.7-0.6,1.1c-1.9,4.1-3.1,8.3-3.5,12.7c-0.5,4.6-0.1,9,1.1,13.1l0.4,1.3l0.4,1.4
			c0.3,1,0.6,2,0.9,2.7c0.8,2,1.7,3.7,2.7,4.9c0.9,1.1,2.1,0.4,3.5-1.9c0.5-0.8,1-1.8,1.5-2.9c0.2-0.4,0.3-0.8,0.5-1.2
			C331.8,127.6,331.9,127.3,332,127z"/>
		<path d="M362,135.7c0.5,0.5,0.7,1.2,0.6,1.8c-0.1,0.6-0.3,1.1-0.8,1.6c-0.5,0.5-0.9,0.7-1.5,0.7c-0.6,0-1.2-0.2-1.6-0.8
			c-2.4-2.8-4.4-6.5-6-11c-0.5-1.4-1.1-3.4-1.9-6l-0.9-3c-0.3-1.1-0.7-2.2-1-3.1c-0.4,0-0.9,0-1.3-0.1c0.1,8.9,0.2,16.1,0.1,21.7
			c0,0.7-0.2,1.3-0.7,1.7c-0.5,0.4-1,0.6-1.6,0.6c-0.6,0-1.2-0.2-1.6-0.6c-0.5-0.4-0.7-1-0.7-1.7c0-5.8,0-13.5-0.1-23.2l-0.2-11.6
			c0-4.4-0.1-8.3-0.1-11.6c0-1,0.5-1.7,1.4-2.1c0.9-0.3,1.7-0.2,2.4,0.3c2-0.5,4-0.4,5.9,0.4c1.8,0.7,3.4,1.8,4.8,3.3
			c1.4,1.5,2.4,3.2,3.1,5.2c0.7,2,1,4,0.8,6c-0.2,2.4-1,4.6-2.4,6.6c-1.4,2-3,3.4-5,4.3c0.2,0.8,0.5,1.7,0.8,2.7l0.7,2.7
			c0.6,2.4,1.2,4.2,1.6,5.4C358.2,129.9,359.9,133.2,362,135.7z M347.7,111c2.5,0.9,4.6,0.2,6.5-2c1.8-2.1,2.5-4.5,2.1-6.9
			c-0.3-2.5-1.3-4.6-2.8-6.2c-1.7-1.8-3.8-2.5-6.1-2C347.5,97.8,347.6,103.5,347.7,111z"/>
		<path d="M380.9,115.4c1.2,1.4,2.2,2.7,2.9,4c2,3.5,2.8,7.1,2.3,10.6c-0.5,3.9-2.5,6.8-5.9,8.7c-2.6,1.4-5.3,1.4-8.2-0.2
			c-1.3-0.7-2.3-1.6-3.1-2.8c-0.8-1.2-1.3-2.5-1.3-4c0-0.7,0.2-1.3,0.6-1.7c0.4-0.4,1-0.6,1.6-0.6c0.6,0,1.2,0.2,1.6,0.6
			c0.5,0.4,0.8,1,0.8,1.7c0.1,1.9,1.1,2.9,3.2,3c0.8,0.1,1.6,0,2.5-0.3c0.9-0.3,1.5-0.7,2-1.3c1-1.2,1.6-2.7,1.8-4.3
			c0.2-1.5-0.1-3.1-0.7-4.6c-0.7-1.8-1.9-3.7-3.6-5.7c-0.5-0.6-1.3-1.5-2.2-2.5l-1.1-1.2l-1.1-1.3c-2.8-3.2-4.7-6.4-5.6-9.7
			c-1.1-4.1-0.5-7.7,2-10.6c1.1-1.3,2.5-2.4,4.2-3.1c1.7-0.7,3.4-1,5.2-1c1.9,0.1,3.5,0.6,4.8,1.5c1.5,1,2.5,2.5,3.1,4.4
			c1,3.5,0.4,6.4-1.8,8.7c-1.1,1.2-2.4,1.7-4,1.6c-1.6-0.1-2.8-0.9-3.5-2.3c-0.3-0.6-0.4-1.3-0.2-1.9c0.2-0.6,0.6-1,1.1-1.3
			c0.5-0.3,1.1-0.4,1.6-0.3c0.6,0.1,1.1,0.5,1.4,1.1c0,0.1,0.2,0,0.4-0.2c0-0.1,0.1-0.2,0.2-0.4l0.1-0.1c0,0,0,0,0-0.1
			c0.2-0.5,0.3-1,0.4-1.5c0.1-0.8,0-1.6-0.4-2.4c-0.4-0.8-1-1.3-1.6-1.7c-0.8-0.5-1.7-0.6-2.7-0.5c-2,0.1-3.5,1-4.6,2.5
			c0,0,0,0.1-0.1,0.1l-0.1,0.2c-0.1,0.2-0.2,0.3-0.2,0.5c-0.3,0.5-0.5,1.1-0.6,1.7c-0.5,1.8-0.4,3.5,0.2,5.2l0.1,0.3l0.1,0.3
			l0.1,0.2c0.9,2.1,2.6,4.4,5.1,7l1.7,1.8C379.9,114.3,380.5,114.9,380.9,115.4z"/>
	</g>
</g>
<g>
	<path d="M217.7,189.6c3.4-2.2,5.6-4.5,6.6-6.9c1-2.4,1.2-4.3,0.6-5.9c-0.6-1.5-1.7-2.2-3.3-2c-1.5,0.2-3.2,1.8-4.9,4.7
		c-1.3-2-2.7-3-4.3-3c-1.6,0-2.8,0.7-3.6,2.1c-0.8,1.4-0.6,3.1,0.6,5.1C210.7,185.7,213.4,187.7,217.7,189.6z"/>
	<path d="M311.9,210.2c-0.4,0.1-0.6,0.4-0.8,0.8c-0.6,2.7-1.7,5.8-3.1,9.4c-1.4,3.6-3.1,7-5.1,10.3c-2,3.3-4.2,5.8-6.7,7.6
		c-2.5,1.8-5.1,2.2-8,1.3c-1.8-0.6-3.2-2-4-4.2c-0.9-2.1-1.4-4.5-1.6-7.1c-0.2-2.6-0.2-4.9-0.2-7c4.5-1,8-3.4,10.7-7.2
		c2.7-3.8,4-8,3.9-12.5c-0.2-3.5-1.1-6.2-2.6-8c-1.5-1.8-3.4-2.8-5.6-2.9c-2.2-0.1-4.4,0.6-6.5,2.1c-2.6,2.1-4.7,5.4-6.5,9.6
		c-1.7,4.3-2.8,9-3.4,14.2c0,0.2,0,0.3,0,0.5c-0.9,2.3-1.9,4.6-3.2,6.8c-2,3.3-4.2,5.9-6.6,7.5c-2.4,1.7-4.7,1.8-6.9,0.4
		c-2.7-2.1-4.3-5.8-4.6-11.1c-0.3-5.3-0.2-11.7,0.4-19.1c0.2-2.8,0.4-5.7,0.5-8.7c0.3-6,0.6-11.2,0.7-15.4c0.1-1.4,0.2-2.9,0.2-4.3
		c6.8,0.3,13.2,0,19.2-1c6-1,11.2-2.9,15.7-5.8c4.5-2.9,7.9-7,10.1-12.3c0.3-0.8,0.2-1.5-0.1-2.3c-0.3-0.7-0.8-1.3-1.6-1.6
		c-0.8-0.3-1.6-0.3-2.3,0c-0.7,0.3-1.3,0.9-1.6,1.7c-2.9,6.7-7.9,11.2-14.9,13.7c-7,2.5-15.1,3.5-24.3,3.2c0.2-4.4,0.4-9.8,0.7-16
		c0.1-0.6,0-1.1-0.3-1.5c-0.3-0.5-0.7-0.8-1.2-1c-0.6-0.2-1.3-0.2-1.9,0.1c-0.6,0.3-1,0.7-1.2,1.4c-1.3,3.9-2.5,9.5-3.7,16.7
		c-6.2-0.5-12.5-1.3-18.8-2.3c-4.7-0.8-9.6-1.7-14.6-2.7c-8-1.7-15.9-3-23.9-4.1c-8-1-15.3-0.9-22.1,0.3c-6.8,1.2-12.4,4.3-16.9,9.3
		c-0.4,0.5-0.6,1.1-0.5,1.8c0.1,0.6,0.4,1.2,0.9,1.6c0.6,0.5,1.2,0.6,1.9,0.5c0.7-0.1,1.2-0.5,1.6-1.1c2.2-3.8,5.4-6.4,9.7-7.8
		c4.3-1.4,9.2-2.1,14.7-1.9s11.3,0.8,17.4,1.9c6,1.1,11.9,2.2,17.7,3.5c4.9,1.1,9.4,2,13.5,2.7c6.3,1.1,12.6,2,18.8,2.6
		c-1.3,8.6-2.2,15.2-2.7,20c0,0.4-0.1,0.8-0.1,1.2c-0.4,3.8-0.8,8.1-1.1,13c-0.2,3.4-0.2,6.7-0.1,10c-1,2.4-2.1,5-3.4,7.6
		c-1.4,2.8-3,5.6-5,8.3c-2.9,3.6-5.3,4.9-7.2,4c-1.9-0.9-2.9-3.5-3.1-7.9c0-2,0-4.4,0-7.1c0-3.8,0-7.8-0.1-11.7
		c-0.1-4-0.5-7.3-1.2-10c-0.7-2.7-1.8-4-3.3-4c-0.7,0-1.2,0.3-1.7,0.8c-0.4,0.5-0.7,1.1-0.7,1.8c0,0.1,0,0.2,0.1,0.3
		c0,0-0.1,0.1-0.1,0.1c-0.9,4.2-1.5,7.4-1.9,9.7c-0.4,2.3-0.7,4.1-0.9,5.5c0,0.5-0.1,0.9-0.1,1.3c-0.5,2.2-1.3,5.3-2.4,9.3
		c-1.3,5-2.8,9.8-4.5,14.5c-2.1,5.2-4.1,7.6-6.3,7.2c-2.1-0.4-3.8-3-5.1-7.9c-0.6-2.5-1-5.1-1.1-8c-0.1-2.9-0.2-5.7-0.1-8.6
		c0-3.6-0.1-6.9-0.3-10.1c-0.2-3.1-0.9-5.7-2-7.8c-1.1-2.1-2.9-3.3-5.4-3.8c-2.8-0.3-5.3,0.6-7.7,2.7c-2.3,2.1-4.4,4.8-6.3,8
		c-1.8,3.2-3.4,6.2-4.8,9c0.4-6.9-0.3-13.1-2.1-18.8c-0.8-2.3-1.5-3.9-2.2-4.8c-0.7-0.9-1.4-1.3-2.1-1.3c-0.7,0-1.3,0.2-1.9,0.6
		c-0.5,0.5-0.8,1-0.8,1.8c-0.1,0.7-0.2,1.5-0.2,2.5c-0.2,1.5-0.3,3.7-0.5,6.5c-0.1,2.5-0.2,4.9-0.3,7.2c0,0.1-0.1,0.1-0.1,0.2
		c-0.5,2.2-1.3,5.9-2.7,10.8c-1.3,5-2.8,9.8-4.5,14.5c-2.4,5.9-4.8,8.2-7.2,6.9c-2.4-1.3-4.1-5.5-5.1-12.4c-1-6.9-0.7-15.8,1-26.6
		c0.9-5.2,1.4-9,1.3-11.2c-0.1-2.3-1.2-3.5-3.4-3.8c-1.4-0.2-2.5,0.2-3.3,1.1c-0.8,0.9-1.5,2-2,3.5c-1.3,3.2-2.4,7.1-3.1,11.6
		c-0.8,4.5-1,9.4-0.9,14.5c-1.6,3.8-3.4,6.8-5.4,9c-2,2.2-3.8,3.1-5.3,2.8c-1.6-0.4-2.6-2.5-3.2-6.3c-0.3-4.5-0.4-9.7-0.2-15.6
		c0.2-5.1,0.1-9.6-0.1-13.5c-0.2-1.3-0.9-2.1-2.1-2.4c-1.2-0.3-2.2,0.3-3,1.5c-1.4,2.9-2.7,6.5-3.7,10.8c-1,4.3-1.5,8.7-1.5,13.1
		c0,4.5,0.8,8.4,2.4,11.8c1.6,3.3,3.8,5.4,6.6,6.3c2.8,0.9,5.6,0.6,8.6-1c2.9-1.5,5.5-4.3,7.7-8.4c0.5,3.2,1.3,6.3,2.3,9.4
		c1.8,5.1,4.2,8.8,7.2,11c3,2.2,6,2.4,9.1,0.7c3.1-1.8,5.7-5.9,7.8-12.6c1.2-3.9,2.1-7.9,2.9-11.9c0.2,4.2,0.5,7.5,0.8,9.7
		c0.3,1.2,0.9,1.9,2,2.1c1.1,0.2,1.9-0.2,2.6-1.2c1.2-2.1,2.2-4.6,3-7.6c0.1-0.1,0.2-0.2,0.2-0.4c1.9-3.3,3.8-6.8,5.9-10.3
		c2.1-3.5,4.1-6.4,5.9-8.8c1.8-2.4,3.3-3.6,4.5-3.6c1.1,0,1.7,1.7,1.7,5.3c0,0.4,0,1-0.1,1.8c-0.3,2.2-0.3,5.6-0.1,10.1
		c0.2,4.5,1.2,9.7,3.1,15.6c1.8,5.1,4.2,8.8,7.2,11c3,2.2,6,2.4,9.1,0.7c3.1-1.8,5.7-5.9,7.8-12.6c0.9-3,1.7-6,2.3-9
		c0.3,2.1,0.7,4,1.3,5.5c1.6,4.8,4.2,7.5,7.7,8.2c3.5,0.7,7.7-1.4,12.7-6.1c2.9-3.2,5.1-6.9,6.8-11.1c0.3-0.7,0.5-1.5,0.8-2.2
		c0.5,3.3,1.4,6.2,2.6,8.8c1.6,3.4,4.1,5.6,7.5,6.6c4,0.8,7.6-0.1,11-2.9c3.4-2.8,6.3-6.4,8.6-10.8c0.3-0.6,0.6-1.2,0.9-1.8
		c0.1,2.3,0.4,4.5,0.8,6.7c0.9,4.7,2.6,8.5,5.2,11.4c2.6,2.9,6.2,4.3,10.7,4.1h0.1h0.1c4.6-0.8,8.7-3.1,12.2-6.9
		c3.5-3.8,6.3-8.4,8.3-13.6c2.1-5.2,3.3-10.2,3.7-15.1c0-0.5-0.2-0.8-0.5-1C312.6,210.2,312.3,210.1,311.9,210.2z M284.2,208.1
		c0.8-4.1,2-7.3,3.5-9.5c0.5-0.7,1.1-1.1,1.9-1.2c0.7-0.2,1.4,0.1,2,0.7c0.6,0.7,1,1.9,1,3.7c0.2,2.9-0.6,6-2.1,9.4
		c-1.6,3.3-4.2,5.8-7.8,7.3C282.9,215.7,283.4,212.2,284.2,208.1z"/>
	<path d="M318.3,201.3c0,1.5,0.1,3.7,0.3,6.6l0.5,13.1c0.1,1,0.6,1.5,1.7,1.5c0.4,0,0.7-0.1,1-0.4c0.3-0.3,0.5-0.6,0.5-1.1l0.4-8.8
		l0.6-11.5c0.2-2,0.3-4,0.3-6l0.1-1.9c0.2-4.4,0.3-8.4,0.3-12.1c0-0.2,0.1-1.2,0.1-2.9c0-4.2-0.3-7.8-0.9-10.8l-0.6-2.5
		c-0.3-0.8-0.8-1.1-1.6-1.1c-0.8,0-1.3,0.4-1.6,1.1l-0.6,2.4c-0.4,1.6-0.7,3.7-1,6.4c-0.1,1.3-0.1,4-0.1,7.9
		c0,5.9,0.1,10.4,0.3,13.4C318.1,197.9,318.2,200.2,318.3,201.3z"/>
	<path d="M324.2,228.8c-1.1-1.3-2.5-2-4.1-2c-1.3,0-2.4,0.9-3.3,2.7c-0.9,1.8-1.3,3.4-1.3,4.9c0,1.5,0.6,2.8,1.7,3.9
		s2.4,1.6,3.9,1.6c1.4,0,2.6-0.8,3.6-2.3c0.8-1.3,1.3-2.7,1.3-4.2C325.9,231.6,325.4,230.1,324.2,228.8z"/>
</g>
<g>
	<g>
		<path d="M75.1,257.8c1.1-0.2,2.2,0,3.1,0.6c0.8,0.6,1.3,1.4,1.7,2.4c0.3,1,0.2,1.9-0.2,2.7c-0.5,0.9-1.3,1.5-2.4,1.7
			c-2.8,0.5-6.6,0.7-11.3,0.4c0,4.9,0,10.9,0.1,18.2l0.2,9.1l0.1,9.1c0.1,14.6-0.2,26.7-0.9,36.4c-0.1,1.2-0.6,2.1-1.4,2.8
			c-0.7,0.6-1.7,0.9-2.7,0.9c-1.1,0-1.9-0.3-2.6-0.9c-0.7-0.7-1.1-1.6-1-2.8c0.7-9.7,1-21.8,0.8-36.5l-0.1-9.2l-0.1-9.1
			c-0.1-7.3-0.2-13.4-0.1-18.3c-3.5,0-6.6,0.3-9.2,1c-1.1,0.3-2.2,0.2-3.1-0.4c-0.8-0.5-1.3-1.3-1.6-2.3c-0.3-1-0.2-2,0.2-2.8
			c0.5-1,1.3-1.6,2.4-1.9c3.3-0.9,8.1-1.2,14.1-0.8l3.5,0.2l3.5,0.1C70.8,258.3,73.1,258.2,75.1,257.8z"/>
		<path d="M111.7,279.3c2.7,10,3.6,19.7,2.7,29c-0.9,10.5-4.1,19.6-9.4,27.2c-2.5,3.6-5,5.7-7.7,6.4c-3.1,0.8-6-0.5-8.7-3.8
			c-4.5-5.6-7.8-13.1-9.8-22.7C76.4,304,76.4,293.2,79,283c0.3-1.2,0.6-2.2,0.8-2.9c0.3-1.1,0.6-2.2,0.9-3.2
			c0.7-2.5,1.5-4.7,2.4-6.6c2.2-5.1,4.9-8.5,8-10.4c5.3-3.2,10-2,14,3.7c1.5,2,2.9,4.7,4.1,8c0.5,1.3,0.9,2.6,1.4,4.1
			C111,276.7,111.3,277.9,111.7,279.3z M103.8,321.1c4-12.3,4.2-25.6,0.5-39.7l-0.8-2.9l-0.9-2.9c-0.7-2.2-1.6-4-2.4-5.5
			c0-0.1-0.1-0.2-0.2-0.5l-0.2-0.3l-0.2-0.4c-0.3-0.6-0.6-1.1-0.9-1.5c-0.9-1.2-1.6-1.7-2.3-1.5c-1.1,0.5-2.2,1.4-3.2,2.8
			c-0.4,0.6-0.8,1.3-1.2,2c-0.3,0.5-0.6,1.1-0.9,1.9c-3.1,6.7-5.1,13.7-5.8,21c-0.8,7.6-0.2,14.9,1.8,21.8l0.6,2.2l0.6,2.3
			c0.5,1.7,1.1,3.2,1.5,4.5c1.3,3.4,2.8,6.1,4.5,8.1c1.5,1.8,3.5,0.7,5.8-3.2c0.8-1.4,1.7-3,2.5-4.8c0.3-0.7,0.5-1.4,0.8-2.1
			C103.5,321.9,103.7,321.5,103.8,321.1z"/>
		<path d="M161.1,264.1c-1,9.5-1.3,21.9-0.7,37.1l0.4,9.3l0.4,9.3c0.2,7.2,0.3,13.3,0.2,18.6c0,1.2-0.4,2.1-1.2,2.8
			c-0.7,0.6-1.7,0.9-2.7,0.9c-1,0-1.9-0.3-2.7-0.9c-0.8-0.7-1.2-1.7-1.1-2.8c0.1-5.3,0-11.6-0.2-18.9L153,310l-0.4-9.4l-2.2,9.2
			c-0.1,0.5-0.3,1.2-0.4,2.2l-0.1,0.7l-0.1,0.8l-0.3,1.6c-0.4,2.9-0.9,5.3-1.5,7.2c-1.7,5.9-4.3,8.4-7.7,7.5c-1.7-0.5-3-1.8-3.8-3.9
			c-0.3-0.7-0.5-1.6-0.8-2.8l-0.3-1.4l-0.3-1.3l-2.4-9.7l-2.5-9.7V301l-0.3,9.4l-0.3,9.4c-0.3,7.5-0.4,13.8-0.5,18.6
			c0,1.2-0.4,2.1-1.2,2.8c-0.7,0.6-1.6,0.9-2.7,0.9c-1,0-1.9-0.3-2.7-0.9c-0.8-0.7-1.2-1.6-1.2-2.8c0-4.9,0.2-11.2,0.5-19l0.3-9.5
			l0.3-9.5c0.4-15.1,0-27.8-1.1-38c-0.2-1.1,0.1-2,0.7-2.8c0.5-0.7,1.3-1.2,2.3-1.4c1-0.2,1.9-0.1,2.7,0.3c0.9,0.4,1.5,1.2,1.8,2.3
			c1.1,3.8,2.3,9.1,3.7,15.7l1.6,7.9c0.6,3,1.2,5.6,1.8,7.9c0.4,1.6,0.8,3.5,1.3,5.5l1.2,5.7c1.1,5,1.9,8.7,2.6,11.4l0.5-2.1
			l3.9-17.3l3.8-16.2c1.7-7,2.9-12.3,3.8-16.1l0.2-1.4c0.1-1.2,0.6-2.1,1.5-2.8c0.8-0.6,1.7-0.9,2.8-0.9c1.1,0,1.9,0.3,2.5,0.9
			c0.7,0.7,1,1.6,0.9,2.8l-0.2,2.2V264.1z"/>
		<path d="M203.7,279.3c2.7,10,3.6,19.7,2.7,29c-0.9,10.5-4.1,19.6-9.4,27.2c-2.5,3.6-5,5.7-7.7,6.4c-3.1,0.8-6-0.5-8.7-3.8
			c-4.5-5.6-7.8-13.1-9.8-22.7c-2.4-11.4-2.4-22.2,0.2-32.4c0.3-1.2,0.6-2.2,0.8-2.9c0.3-1.1,0.6-2.2,0.9-3.2
			c0.7-2.5,1.5-4.7,2.4-6.6c2.2-5.1,4.9-8.5,8-10.4c5.3-3.2,10-2,14,3.7c1.5,2,2.9,4.7,4.1,8c0.5,1.3,0.9,2.6,1.4,4.1
			C203,276.7,203.3,277.9,203.7,279.3z M195.8,321.1c4-12.3,4.2-25.6,0.5-39.7l-0.8-2.9l-0.9-2.9c-0.7-2.2-1.6-4-2.4-5.5
			c0-0.1-0.1-0.2-0.2-0.5l-0.2-0.3l-0.2-0.4c-0.3-0.6-0.6-1.1-0.9-1.5c-0.9-1.2-1.6-1.7-2.3-1.5c-1.1,0.5-2.2,1.4-3.2,2.8
			c-0.4,0.6-0.8,1.3-1.2,2c-0.3,0.5-0.6,1.1-0.9,1.9c-3.1,6.7-5.1,13.7-5.8,21c-0.8,7.6-0.2,14.9,1.8,21.8l0.6,2.2l0.6,2.3
			c0.5,1.7,1.1,3.2,1.5,4.5c1.3,3.4,2.8,6.1,4.5,8.1c1.5,1.8,3.5,0.7,5.8-3.2c0.8-1.4,1.7-3,2.5-4.8c0.3-0.7,0.5-1.4,0.8-2.1
			C195.5,321.9,195.7,321.5,195.8,321.1z"/>
		<path d="M245.5,335.4c0.8,0.9,1.1,1.9,1,3c-0.1,1-0.6,1.8-1.3,2.6c-0.7,0.7-1.6,1.1-2.5,1.2c-1,0-1.9-0.4-2.7-1.3
			c-4-4.7-7.4-10.8-10-18.3c-0.8-2.3-1.8-5.6-3.1-10l-1.4-5c-0.5-1.9-1.1-3.6-1.6-5.1c-0.7,0-1.4-0.1-2.1-0.2
			c0.2,14.7,0.3,26.6,0.2,35.8c0,1.2-0.4,2.1-1.2,2.8c-0.7,0.6-1.6,0.9-2.7,0.9c-1.1,0-1.9-0.3-2.7-0.9c-0.8-0.7-1.2-1.7-1.2-2.8
			c0.1-9.6,0-22.4-0.2-38.4l-0.4-19.2c-0.1-7.3-0.1-13.8-0.2-19.2c0-1.7,0.8-2.9,2.3-3.5c1.5-0.5,2.8-0.4,4,0.5
			c3.3-0.8,6.5-0.6,9.7,0.6c2.9,1.1,5.6,2.9,7.9,5.5c2.3,2.5,4,5.3,5.1,8.5c1.2,3.3,1.6,6.6,1.3,9.9c-0.4,4-1.7,7.6-3.9,10.8
			c-2.2,3.3-5,5.6-8.3,7.1c0.4,1.3,0.8,2.8,1.3,4.5l1.2,4.5c1.1,3.9,1.9,6.9,2.6,9C239.1,325.8,242,331.3,245.5,335.4z M221.8,294.5
			c4.1,1.5,7.7,0.4,10.8-3.4c2.9-3.5,4.1-7.4,3.5-11.5c-0.5-4.2-2.1-7.6-4.7-10.3c-2.9-3-6.2-4.1-10.1-3.2
			C221.5,272.7,221.6,282.2,221.8,294.5z"/>
		<path d="M285.3,335.4c0.8,0.9,1.1,1.9,1,3c-0.1,1-0.6,1.8-1.3,2.6c-0.7,0.7-1.6,1.1-2.5,1.2c-1,0-1.9-0.4-2.7-1.3
			c-4-4.7-7.4-10.8-10-18.3c-0.8-2.3-1.8-5.6-3.1-10l-1.4-5c-0.5-1.9-1.1-3.6-1.6-5.1c-0.7,0-1.4-0.1-2.1-0.2
			c0.2,14.7,0.3,26.6,0.2,35.8c0,1.2-0.4,2.1-1.2,2.8c-0.7,0.6-1.6,0.9-2.7,0.9c-1.1,0-1.9-0.3-2.7-0.9c-0.8-0.7-1.2-1.7-1.2-2.8
			c0.1-9.6,0-22.4-0.2-38.4l-0.4-19.2c-0.1-7.3-0.1-13.8-0.2-19.2c0-1.7,0.8-2.9,2.3-3.5c1.5-0.5,2.8-0.4,4,0.5
			c3.3-0.8,6.5-0.6,9.7,0.6c2.9,1.1,5.6,2.9,7.9,5.5c2.3,2.5,4,5.3,5.1,8.5c1.2,3.3,1.6,6.6,1.3,9.9c-0.4,4-1.7,7.6-3.9,10.8
			c-2.2,3.3-5,5.6-8.3,7.1c0.4,1.3,0.8,2.8,1.3,4.5l1.2,4.5c1.1,3.9,1.9,6.9,2.6,9C278.9,325.8,281.8,331.3,285.3,335.4z
			 M261.6,294.5c4.1,1.5,7.7,0.4,10.8-3.4c2.9-3.5,4.1-7.4,3.5-11.5c-0.5-4.2-2.1-7.6-4.7-10.3c-2.9-3-6.2-4.1-10.1-3.2
			C261.3,272.7,261.4,282.2,261.6,294.5z"/>
		<path d="M327.9,279.3c2.7,10,3.6,19.7,2.7,29c-0.9,10.5-4.1,19.6-9.4,27.2c-2.5,3.6-5,5.7-7.7,6.4c-3.1,0.8-6-0.5-8.7-3.8
			c-4.5-5.6-7.8-13.1-9.8-22.7c-2.4-11.4-2.4-22.2,0.2-32.4c0.3-1.2,0.6-2.2,0.8-2.9c0.3-1.1,0.6-2.2,0.9-3.2
			c0.7-2.5,1.5-4.7,2.4-6.6c2.2-5.1,4.9-8.5,8-10.4c5.3-3.2,10-2,14,3.7c1.5,2,2.9,4.7,4.1,8c0.5,1.3,0.9,2.6,1.4,4.1
			C327.2,276.7,327.5,277.9,327.9,279.3z M320,321.1c4-12.3,4.2-25.6,0.5-39.7l-0.8-2.9l-0.9-2.9c-0.7-2.2-1.6-4-2.4-5.5
			c0-0.1-0.1-0.2-0.2-0.5l-0.2-0.3l-0.2-0.4c-0.3-0.6-0.6-1.1-0.9-1.5c-0.9-1.2-1.6-1.7-2.3-1.5c-1.1,0.5-2.2,1.4-3.2,2.8
			c-0.4,0.6-0.8,1.3-1.2,2c-0.3,0.5-0.6,1.1-0.9,1.9c-3.1,6.7-5.1,13.7-5.8,21c-0.8,7.6-0.2,14.9,1.8,21.8l0.6,2.2l0.6,2.3
			c0.5,1.7,1.1,3.2,1.5,4.5c1.3,3.4,2.8,6.1,4.5,8.1c1.5,1.8,3.5,0.7,5.8-3.2c0.8-1.4,1.7-3,2.5-4.8c0.3-0.7,0.5-1.4,0.8-2.1
			C319.7,321.9,319.9,321.5,320,321.1z"/>
		<path d="M383.6,261.6l0.1,11.1c0,4.5,0,8.2,0,11.1c-0.1,8.5-0.5,15.9-1.1,22.1c-0.8,7.9-1.9,14.7-3.3,20.5l-0.4,1.6l-0.4,1.7
			c-0.3,1.4-0.6,2.5-0.9,3.5c-0.8,2.7-1.9,4.8-3.1,6.2c-3.1,3.7-6.1,3.6-8.8-0.1c-1-1.4-2-3.2-2.8-5.4c-0.7-1.8-1.2-3.5-1.5-5.1
			l-0.2-0.8c-0.2,1.1-0.5,2.1-0.8,2.9l-0.4,1.4l-0.4,1.5c-0.4,1.2-0.7,2.2-1.1,3c-1,2.2-2.3,3.8-3.8,4.7c-1.3,0.7-2.7,0.8-4.2,0.1
			c-1.4-0.6-2.5-1.6-3.2-2.9c-2.6-4.6-4.5-10.4-5.8-17.5c-0.5-2.8-0.9-5.9-1.3-9.4c-0.2-2.2-0.5-5.2-0.8-9c-0.5-5.9-0.8-12.7-1-20.6
			l-0.2-10.3l-0.2-10.3c0-1.2,0.4-2.2,1.2-2.8c0.7-0.6,1.6-0.9,2.7-0.9c1,0,1.9,0.3,2.7,0.9c0.8,0.7,1.2,1.7,1.2,2.8l0.1,7.8
			l0.1,7.9c0.1,6.2,0.3,11.5,0.5,15.8c0.6,12,1.9,22.4,4.1,31.2l0.4,1.6l0.4,1.8c0.3,1.4,0.6,2.6,0.9,3.5c0.2-0.3,0.3-0.7,0.5-1.1
			l0.4-1.2c1.1-4.4,1.8-9.1,2.1-14l0.5-6.4l0.4-6.4c0.4-4.9,0.8-9.1,1.4-12.7c0.3-1.9,1.6-2.8,3.8-2.8c2.2,0,3.4,0.9,3.7,2.8
			c0.6,3.5,1.1,8.1,1.5,13.8l0.4,6.9c0.2,2.7,0.4,5,0.6,6.9c0.6,5.9,1.4,10.4,2.5,13.6c0.1,0.2,0.2,0.4,0.3,0.5l0.1-0.2
			c0.7-2.4,1.3-4.5,1.7-6.5c2.1-9,3.4-19.4,3.9-31.2c0.2-4.4,0.3-9.7,0.3-15.7l-0.1-7.9v-7.8c0-1.2,0.4-2.1,1.2-2.8
			c0.7-0.6,1.6-0.9,2.7-0.9c1.1,0,2,0.3,2.7,0.9C383.3,259.5,383.6,260.5,383.6,261.6z"/>
	</g>
</g>
<path d="M71.5,185.6c-5-3.2-10.6-6.5-14.4-11.1c-0.7-1,0.3-2.8,1.5-2.4c5.7,1.8,10.7,5.2,15.5,8.3c5.9,3.6,10.2,8.1,15.5,12.5
	c0.7,0.5-0.2,2.2-1.1,1.5C83,191.1,77,189,71.5,185.6z M86.5,167.9c-0.5-0.8-1.5-1.6-1.1-2.4c0.1-0.6,0.5-1,1-1
	c1.1-0.1,1.9,0.9,2.5,1.8c0.5,0.8,0.8,1.7,0.9,2.6s-1.2,1.6-1.8,1C87.6,169.1,87,168.7,86.5,167.9z M112.8,166.7
	c0.4,0.4,0.6,0.9,0.5,1.5c0.3,2.7,0.6,5.1,0.6,7.9c0,1.3-1.8,1.7-2.3,0.4c-0.8-1.9-1.7-3.9-2.6-5.9c-0.4-0.1-0.6-0.6-0.7-1
	c-1.8-5.3-4.4-10.9-5.2-16.4c-0.1-1.1,1.2-1.9,1.9-1.1C108.9,155.8,111.2,161.6,112.8,166.7z M96.9,184.1c-1-1.6-3.7-4.9-2.6-6.9
	c1.3-2.8,4.1,2.3,4.5,3.2c1.3,2.2,2.3,5,4.4,6.7c0.6,0.7,0.1,1.7-0.8,1.5C99.8,188.2,98.1,185.9,96.9,184.1z M69.6,207.5
	c-0.6-0.6-0.6-1.7,0.2-2.1c2.2-1.6,4.8-0.9,7.4-0.6c3.9,0.7,7.3,2,11,3c1,0.3,1.2,1.8,0.2,2c-3.3,0.7-6.2,1-9.5,0.4
	C75.7,209.8,71.8,209.8,69.6,207.5z M90.5,226.7c1-0.2,1.8,1.1,1,1.6c-4.8,3-8.7,6.8-13.8,8.9c-5.8,2.3-12.2,4.1-18.4,3.8
	c-0.9-0.2-1.6-1.2-0.7-1.8c5-2.5,10.7-4.2,15.9-6.2C79.7,231,85,228,90.5,226.7z M96.8,236.2c0.9-1.4,2-2.6,3.5-3.3
	c0.9-0.6,2.7,0.5,2,1.6c-1.9,2.7-2.9,7.7-6.6,8.2c-1.4,0.3-2.1-1.5-1.7-2.6C94.4,238.6,95.8,237.3,96.8,236.2z"/>
<path d="M353.3,195.9c-0.9,0.7-1.8-1-1.1-1.5c5.3-4.3,9.7-8.9,15.5-12.5c4.9-3.1,9.9-6.5,15.5-8.3c1.1-0.4,2.2,1.3,1.5,2.4
	c-3.8,4.5-9.4,7.9-14.4,11.1C364.8,190.5,358.9,192.6,353.3,195.9z M353.8,171.4c-0.6,0.7-1.9-0.1-1.8-1c0.1-0.9,0.5-1.8,0.9-2.6
	c0.6-0.9,1.3-1.9,2.5-1.8c0.5,0,0.9,0.4,1,1c0.4,0.9-0.6,1.7-1.1,2.4C354.9,170.2,354.3,170.6,353.8,171.4z M336.9,153.6
	c0.7-0.8,2-0.1,1.9,1.1c-0.7,5.5-3.4,11.1-5.2,16.4c-0.1,0.4-0.4,0.9-0.7,1c-1,2.1-1.8,4-2.6,5.9c-0.5,1.3-2.3,0.8-2.3-0.4
	c-0.1-2.8,0.2-5.2,0.6-7.9c-0.1-0.6,0.1-1.1,0.5-1.5C330.7,163.1,333,157.3,336.9,153.6z M339.6,190c-0.9,0.2-1.4-0.9-0.8-1.5
	c2.1-1.7,3.1-4.5,4.4-6.7c0.4-0.9,3.1-5.9,4.5-3.2c1.1,2-1.6,5.4-2.6,6.9C343.8,187.4,342.1,189.7,339.6,190z M363.1,211.6
	c-3.3,0.6-6.2,0.3-9.5-0.4c-1-0.2-0.8-1.8,0.2-2c3.7-1,7.1-2.2,11-3c2.5-0.3,5.2-1,7.4,0.6c0.8,0.5,0.8,1.5,0.2,2.1
	C370.1,211.3,366.2,211.3,363.1,211.6z M367.4,234.5c5.3,2,10.9,3.6,15.9,6.2c0.9,0.6,0.2,1.6-0.7,1.8c-6.2,0.3-12.6-1.6-18.4-3.8
	c-5.1-2.2-9-5.9-13.8-8.9c-0.8-0.5,0-1.8,1-1.6C356.9,229.5,362.1,232.5,367.4,234.5z M347.9,241.5c0.4,1.1-0.3,2.9-1.7,2.6
	c-3.7-0.5-4.7-5.5-6.6-8.2c-0.7-1.1,1.1-2.2,2-1.6c1.5,0.7,2.6,2,3.5,3.3C346,238.8,347.5,240.1,347.9,241.5z"/>
</svg>
