<?xml version="1.0" standalone="no"?><svg xmlns="http://www.w3.org/2000/svg" viewBox="0 0 1390 320"><path fill="#5000ca" fill-opacity="1" d="M0,192L34.3,208C68.6,224,137,256,206,277.3C274.3,299,343,309,411,272C480,235,549,149,617,122.7C685.7,96,754,128,823,165.3C891.4,203,960,245,1029,234.7C1097.1,224,1166,160,1234,149.3C1302.9,139,1371,181,1406,202.7L1440,224L1440,320L1405.7,320C1371.4,320,1303,320,1234,320C1165.7,320,1097,320,1029,320C960,320,891,320,823,320C754.3,320,686,320,617,320C548.6,320,480,320,411,320C342.9,320,274,320,206,320C137.1,320,69,320,34,320L0,320Z"></path></svg>