<svg xmlns="http://www.w3.org/2000/svg" width="32" height="32" viewBox="0 0 32 32"><path d="M16 1.6c11.2 0 14.4 4.656 14.4 10.4S27.2 22.4 16 22.4 1.6 17.744 1.6 12 4.8 1.6 16 1.6zM8.8 14.4c1.328 0 2.4-1.072 2.4-2.4s-1.072-2.4-2.4-2.4-2.4 1.072-2.4 2.4 1.072 2.4 2.4 2.4zm7.2 0c1.328 0 2.4-1.072 2.4-2.4S17.328 9.6 16 9.6s-2.4 1.072-2.4 2.4 1.072 2.4 2.4 2.4zm7.2 0c1.328 0 2.4-1.072 2.4-2.4s-1.072-2.4-2.4-2.4-2.4 1.072-2.4 2.4 1.072 2.4 2.4 2.4zM9.6 23.2c1.328 0 2.4 1.072 2.4 2.4S10.928 28 9.6 28s-2.4-1.072-2.4-2.4 1.072-2.4 2.4-2.4zm-4.8 3.2c.88 0 1.6.72 1.6 1.6s-.72 1.6-1.6 1.6-1.6-.72-1.6-1.6.72-1.6 1.6-1.6z"/></svg>